<?xml version="1.0" encoding="UTF-8"?>
<svg version="1.1" viewBox="0 0 916 916" width="1280" height="1280" xmlns="http://www.w3.org/2000/svg">
<path transform="translate(0)" d="m0 0h916v916h-916z" fill="#FEFEFE"/>
<path transform="translate(602,239)" d="m0 0h2l-2 6-8 16-7 12-10 14-9 11-13 12-14 10-13 8-23 11-8 2 2 2 30 8 2 1v11l-4 44-3 46-3 43-5 53-4 36-7 49-8 38-8 26-7 17-10 19-12 16-17 17-16 11-17 9-17 6-16 4-25 2-16-2-15-4-19-8-11-7-10-9-10-11-8-14-6-16-3-14v-27l2-9h2l4 20 7 16 8 14 11 12 8 6 13 6 12 3 8 1h10l3-1 1-2-9-1-16-8-12-11-8-9-7-12-7-17v-2l5 2v2h2v2l4 2 9 6 5 3 14 4h12l12-5 11-8 2-3h2l2-4 6-11 6-18 4-25 6-43 8-69 8-76 5-41 1-21 1-3 6 3-13-20-11-13-13-13-2-1v-2l34-4 27-5 23-6 28-10 25-12 23-14 17-12 16-12 10-8 17-14z" fill="#FC6D81"/>
<path transform="translate(698,92)" d="m0 0h7 1l20 1 19 3 17 6 11 6 11 8 8 8 9 14 6 13 4 17v17l-2 13-7 19-7 13h-2l-1-11-5-19-8-16-6-8-6-5v-2l-5-2-10-6-10-3-9-2h-24l-17 3-20 6-27 13-11 7-13 9-6 5h-2v2l-8 6-3 1-1 3-14 11-13 12-8 7-12 10-17 13-19 12-16 9-15 7-21 8-22 7-32 7-29 4-29 2-94 2-30 3-23 5-19 7-17 7h-5l-1-5v-21l3-12 6-12 7-9 9-8 14-8 11-5 21-6 19-3 21-1h17l50 2h61l28-3 21-5 18-6h2v-2l-28 3h-46l-44-4-38-4-20-1h-18l-24 2-26 4-31 7-19 5h-2l2-6 7-14 9-12 7-8 10-8 10-6 12-6 20-6 22-4 10-1 24-1h16l79 3h16l20-1 24-3 20-4 20-6 24-9 30-14 52-26 23-10 28-10 19-5z" fill="#FC6D81"/>
<path transform="translate(698,92)" d="m0 0h7l-4 2-14 4-7 4-11 4-4 1-1 3-11 8-10 9-7 7h-2l-2 4-8 9-12 17-6 5-2 3h-2l-1 5h-2l-2 4-8 12-9 8-4 5-3 3h-2l-2 4-6 5-4 2h-3l-1 3-5 1-12 5h-3l-1 2-4-1v2l-11 2-1 4-9-1v-2l-9 2-2-1-1 3h-5l-2-2-1 2-3-1v-2l-3-1-4-1-10 5-15 2-17 1h-33l-27-2-22-1-38-4-20-1h-18l-24 2-26 4-31 7-19 5h-2l2-6 7-14 9-12 7-8 10-8 10-6 12-6 20-6 22-4 10-1 24-1h16l79 3h16l20-1 24-3 20-4 20-6 24-9 30-14 52-26 23-10 28-10 19-5z" fill="#FC618E"/>
<path transform="translate(602,239)" d="m0 0h2l-2 6-8 16-7 12-10 14-9 11-13 12-14 10-13 8-23 11-8 2 2 2 30 8 2 1v11l-4 44-3 46-3 43-5 53-2 19h-2l-1 12-4-4-1-7-1-1-2 4-2-6-3-1v-3l1-2-3-1 1-3-1-4h2v-2h-2v-8l-3 1-1-4-5-1v-3h-2v-3l-5-1 1-3-4-3-1-4v-3l-2-1v-8h-3l2 5h-2v3h-2v3l-4-2-2-5-1-9h-1l-2 10-1 11-1 1v5h-2l-4-11-2-24-1-10h-2l-4-22-6-23-4-13-5-12-9-20-6-11-10-15-11-13-13-13-2-1v-2l34-4 27-5 23-6 28-10 25-12 23-14 17-12 16-12 10-8 17-14z" fill="#FC618E"/>
<path transform="translate(409,387)" d="m0 0 4 2 2 4h2l7 14 8 20 3 8 7 25 4 20 4 36v51l-1 14-4 26-4 19-8 28-7 19-7 16-8 14-7 11-12 14-10 10-10 7-13 7-7 2h-8l-12-3-14-7-12-11-8-9-7-12-7-17v-2l5 2v2h2v2l4 2 9 6 5 3 14 4h12l12-5 11-8 2-3h2l2-4 6-11 6-18 4-25 6-43 8-69 8-76 5-41 1-21z" fill="#FBAE4F"/>
<path transform="translate(706,92)" d="m0 0 20 1 19 3 17 6 11 6 11 8 8 8 9 14 6 13 4 17v17l-2 13-7 19-7 13h-2l-1-11-5-19-8-16-6-8-6-5v-2l-5-2-10-6-10-3-9-2h-24l-17 3-20 6-27 13-11 7-13 9-6 5h-2v2l-8 6-3 1-1 3-14 11-13 12-7 6h-2l-1-4 9-11 8-12 6-11 10-15 11-18 13-19 8-10 5-6 8-7 8-8 14-10 3-3 9-4 10-4 7-3 4-1h9z" fill="#FBAF4F"/>
<path transform="translate(602,239)" d="m0 0h2l-2 6-8 16-7 12-10 14-9 11-13 12-14 10-13 8-23 11-8 2 2 2 30 8 2 1v11l-4 44-1 3h-2l-1-14-1-16 1-6h-2l-1 4-4 5-2-2-2 1-2-2-2-7-4-3v-2l-7-2h-6l-1 2-6-1-6-2h-6l-3 3h-2v-3l-1 1v2l-3 1-2 3-4-1-2 1-1-3-1 5-3 1-1-3-5-2-5 4h-3v2h2l1 11v6l-4 1-3 2v6l-3 2-6-3v-2h-2l-4-8-4-4-11-17-11-13-13-13-2-1v-2l34-4 27-5 23-6 28-10 25-12 23-14 17-12 16-12 10-8 17-14z" fill="#FC5B97"/>
<path transform="translate(424,639)" d="m0 0h6v3h2l-1 8 2 1-1 5-6 17-7 16-8 14-7 11-12 14-10 10-10 7-13 7-7 2h-8l-12-3-14-7-12-11-8-9-7-12-7-17v-2l5 2v2h2v2l4 2 9 6 5 3 14 4h12l12-5 11-8 2-3h2l2-4 6-11 6-18 1-5 2 1 3-15 5 2 4 3h3l1-7 4-1 2 1v-2l4-1h4 10z" fill="#F78732"/>
<path transform="translate(446,596)" d="m0 0h1v7l-4 23-6 21-6 19-5 11-6 14-12 21-11 13-3 4h-2l-2 4-10 9-6 8h-2l-1 4 6-1 4-3 7-2 5-1h3l1 4-3 3 6-1v3l4-4 4-2h3l1-2 3 1v3l10-3 2-4 2-1 2 2-2 1 2 2-5 1-1 4-3 5-5 3-3 4 9-3 9-6 5-4v2l5-4 1 4-2 4-7 6v3l-6 2v2l-5 3-9 3-7 2-2-1v2l-14 4h-9l-5 3h-18v2h7l1 2-1 4 14-2h6l-4 2-14 2-16 1-16-2-15-4-19-8-11-7-10-9-10-11-8-14-6-16-3-14v-27l2-9h2l4 20 7 16 8 14 11 12 8 6 13 6 12 3 8 1h10l3-1 2-2h8l11-4 12-7 10-8 10-10 12-16 9-16 7-14 7-19 8-25 4-16z" fill="#FE7780"/>
<path transform="translate(426,667)" d="m0 0 1 4-8 18-8 14-7 11-12 14-10 10-10 7-13 7-7 2h-8l-12-3-14-7-12-11-8-9-7-12-7-17v-2l5 2v2h2v2l4 2 9 6 5 3 14 4h12l12-5 11-8 2-3 3 1 7-5h2l1-2 1 2 5-2-2 5v3l-1 2 2 1-2 5-1 1 1 4-3 3h6v2l-3 2 2 4v3l-8 3h-2v2l3 1 5-2h4l9-2v-2h2l2-4 11-14 7-11 11-21z" fill="#FB8032"/>
<path transform="translate(698,92)" d="m0 0h7l-4 2-14 4-7 4-11 4-4 1-1 3-11 8-10 9-7 7h-2v2l-8 1-7-3-4-1-12 7-8 3-8 4h-3v2h-6l-4 2-1 2-7 1-9 3-5 1-4 2-2 2-3-2-2 3-4 1v-3l-2-2v-2l24-11 52-26 23-10 28-10 19-5z" fill="#FC5C96"/>
<path transform="translate(706,92)" d="m0 0 20 1 19 3 17 6 4 3-12 1v3h-34l-10-1-10 1-5-1-7 2-7 1-12 3-10 5-8 3-2 2-3-1 9-8 9-6 3-3 9-4 10-4 7-3 4-1h9z" fill="#FECE65"/>
<path transform="translate(267,714)" d="m0 0h2l8 14 11 12 8 6 3 3 8 6 3 3 6 1 1-2v2l3-1h13l11-1 1 4h-2l-1 4-7 3h-7l-1 5-4 1-2-1v2l-2-1-1 1-6-2v-3l-3-1h3l-1-2h-2l-1-4-5-3v-2l-4-1-1-2-4-1v-3l-7-1 1-3-4-2-12-15-2-5-3-5z" fill="#FC6D81"/>
<path transform="translate(409,387)" d="m0 0 4 2 2 4h2l7 14 6 15v5l-7-2-3-2h-3l-1 5-5 5-5 6-2 4v-9l3-23 1-21z" fill="#FED069"/>
<path transform="translate(167,309)" d="m0 0 1 4-1 5h7v-2l3-2 1-5 4 1 1 3-1 9 4 1 3 1h3l1 3-4 5 1 2 5-1-4 3-20 8h-5l-1-5v-21z" fill="#FE7780"/>
<path transform="translate(524,410)" d="m0 0h2v15l-3 40-1 1-1 8-2-1 1-13v-20l-1-6v-8l2-6h1l1-9z" fill="#FC5F93"/>
<path transform="translate(322,181)" d="m0 0h35l72 3v1l-5 1h-24l-78-3z" fill="#FD6490"/>
<path transform="translate(590,198)" d="m0 0 1 2-6 10-5 9-1 4 10-6 3 1-10 9-11 9-4 4h-2l-1-4 9-11 8-12 6-11z" fill="#FB8032"/>
<path transform="translate(265,745)" d="m0 0 4 4 5 7h3l6 5v2l4 2v2l4 2v3l1 2 2-1 4 3-1 3-9-3-13-13-9-13z" fill="#FC6F81"/>
<path transform="translate(586,202)" d="m0 0v3l-8 14-7 10-6 7 1 5-12 10-3 1 2-6 9-12h2l2-4 7-9 1-3h2l2-5z" fill="#FE787D"/>
<path transform="translate(364,239)" d="m0 0h13l27 2h33l26-2h14l-1 3-8 4-8 1 3-2 10-3v-2l-28 3h-46l-35-3z" fill="#FE7680"/>
<path transform="translate(521,466)" d="m0 0h1v16l-4 47h-1v-39l-1-5 3-10 1-1z" fill="#FD678D"/>
<path transform="translate(284,693)" d="m0 0 5 2v2h2v2l4 2 4 3v2l-3 2v3l-5 1-7-17z" fill="#F78637"/>
<path transform="translate(172,326)" d="m0 0 12 2 2 1-1 4-6 3h-6l-2-5z" fill="#FEFEFE"/>
<path transform="translate(499,171)" d="m0 0h4l-1 3-4 2-7 1-12 4-3-2v-2l17-4z" fill="#FC6291"/>
<path transform="translate(310,180)" d="m0 0h16l-4 2-4 1h-16l-16-1v-1z" fill="#FD698C"/>
<path transform="translate(478,236)" d="m0 0h3l-1 8-4 2h-4l-1 2h-2l-7 1v-2l11-4 5-5z" fill="#FC618F"/>
<path transform="translate(589,217)" d="m0 0 3 1-10 9-4 3h-2v-6l3-3 1 2z" fill="#F8873A"/>
<path transform="translate(450,181)" d="m0 0h8v1h-7v2l-22 2v-2h-8v-1l20-1z" fill="#FD6B8A"/>
<path transform="translate(166,335)" d="m0 0 10 5v2l-5 2h-5z" fill="#FC6E81"/>
<path transform="translate(447,486)" d="m0 0h1l3 19v11h-2l-2-17z" fill="#FD7081"/>
<path transform="translate(519,164)" d="m0 0h3l-1 3-12 5h-5l1-3z" fill="#FC6093"/>
<path transform="translate(471,178)" d="m0 0h6l-4 4-8 1-6-2v-1z" fill="#FD648F"/>
<path transform="translate(284,693)" d="m0 0 5 2v2h2v2l3 1-4 2h-3z" fill="#FC8C52"/>
<path transform="translate(211,205)" d="m0 0 1 2-8 7-10 10v-3l8-9z" fill="#FD6E85"/>
<path transform="translate(698,92)" d="m0 0h7l-4 2-10 3-4-1v-2z" fill="#FD747C"/>
<path transform="translate(335,784)" d="m0 0 9 1 11 2 1 3-15-3-6-2z" fill="#FC6D82"/>
<path transform="translate(499,171)" d="m0 0h4l-1 3-4 2h-6l1-3z" fill="#FC6093"/>
<path transform="translate(451,250)" d="m0 0h3v2l-12 4-2-2 7-3z" fill="#FC608F"/>
<path transform="translate(186,280)" d="m0 0 2 1-1 2h-2v2l-5 5-4 3 2-5z" fill="#FE7780"/>
<path transform="translate(533,158)" d="m0 0 3 1-1 2-6 3-4-1 1-2z" fill="#FC6093"/>
<path transform="translate(357,702)" d="m0 0h2l-2 4-3 3h-5l5-5z" fill="#F98840"/>
<path transform="translate(256,678)" d="m0 0h2v9h-2l-1 3v-9z" fill="#FC6E81"/>
</svg>
